<mxfile host="Electron" modified="2023-12-03T02:12:19.406Z" agent="Mozilla/5.0 (Macintosh; Intel Mac OS X 10_15_7) AppleWebKit/537.36 (KHTML, like Gecko) draw.io/22.1.2 Chrome/114.0.5735.289 Electron/25.9.4 Safari/537.36" etag="FPPdiD4jsPG11hUyhvkS" version="22.1.2" type="device">
  <diagram name="Page-1" id="DPdKVf9kuKZa-ELD7dyS">
    <mxGraphModel dx="224" dy="163" grid="1" gridSize="10" guides="1" tooltips="1" connect="1" arrows="1" fold="1" page="1" pageScale="1" pageWidth="827" pageHeight="1169" math="0" shadow="0">
      <root>
        <mxCell id="0" />
        <mxCell id="1" parent="0" />
        <mxCell id="lNE3wjMLmRq9qEkR53yq-6" style="edgeStyle=orthogonalEdgeStyle;rounded=0;orthogonalLoop=1;jettySize=auto;html=1;exitX=1;exitY=1;exitDx=0;exitDy=0;entryX=0;entryY=1;entryDx=0;entryDy=0;fontFamily=Computer Modern;" parent="1" source="lNE3wjMLmRq9qEkR53yq-1" target="lNE3wjMLmRq9qEkR53yq-2" edge="1">
          <mxGeometry relative="1" as="geometry" />
        </mxCell>
        <mxCell id="lNE3wjMLmRq9qEkR53yq-1" value="1" style="ellipse;whiteSpace=wrap;html=1;aspect=fixed;fontFamily=Computer Modern;" parent="1" vertex="1">
          <mxGeometry x="100" y="360" width="20" height="20" as="geometry" />
        </mxCell>
        <mxCell id="lNE3wjMLmRq9qEkR53yq-7" style="edgeStyle=orthogonalEdgeStyle;rounded=0;orthogonalLoop=1;jettySize=auto;html=1;exitX=0;exitY=0;exitDx=0;exitDy=0;entryX=1;entryY=0;entryDx=0;entryDy=0;fontFamily=Computer Modern;" parent="1" source="lNE3wjMLmRq9qEkR53yq-2" target="lNE3wjMLmRq9qEkR53yq-1" edge="1">
          <mxGeometry relative="1" as="geometry" />
        </mxCell>
        <mxCell id="lNE3wjMLmRq9qEkR53yq-40" style="edgeStyle=orthogonalEdgeStyle;rounded=0;orthogonalLoop=1;jettySize=auto;html=1;exitX=0;exitY=1;exitDx=0;exitDy=0;entryX=0;entryY=0;entryDx=0;entryDy=0;fontFamily=Computer Modern;" parent="1" source="lNE3wjMLmRq9qEkR53yq-2" target="lNE3wjMLmRq9qEkR53yq-3" edge="1">
          <mxGeometry relative="1" as="geometry" />
        </mxCell>
        <mxCell id="lNE3wjMLmRq9qEkR53yq-2" value="2" style="ellipse;whiteSpace=wrap;html=1;aspect=fixed;fontFamily=Computer Modern;" parent="1" vertex="1">
          <mxGeometry x="140" y="360" width="20" height="20" as="geometry" />
        </mxCell>
        <mxCell id="lNE3wjMLmRq9qEkR53yq-41" style="edgeStyle=orthogonalEdgeStyle;rounded=0;orthogonalLoop=1;jettySize=auto;html=1;exitX=1;exitY=0;exitDx=0;exitDy=0;entryX=1;entryY=1;entryDx=0;entryDy=0;fontFamily=Computer Modern;" parent="1" source="lNE3wjMLmRq9qEkR53yq-3" target="lNE3wjMLmRq9qEkR53yq-2" edge="1">
          <mxGeometry relative="1" as="geometry" />
        </mxCell>
        <mxCell id="lNE3wjMLmRq9qEkR53yq-42" style="edgeStyle=orthogonalEdgeStyle;rounded=0;orthogonalLoop=1;jettySize=auto;html=1;exitX=0;exitY=1;exitDx=0;exitDy=0;entryX=1;entryY=1;entryDx=0;entryDy=0;fontFamily=Computer Modern;" parent="1" source="lNE3wjMLmRq9qEkR53yq-3" target="lNE3wjMLmRq9qEkR53yq-38" edge="1">
          <mxGeometry relative="1" as="geometry" />
        </mxCell>
        <mxCell id="lNE3wjMLmRq9qEkR53yq-3" value="3" style="ellipse;whiteSpace=wrap;html=1;aspect=fixed;fontFamily=Computer Modern;" parent="1" vertex="1">
          <mxGeometry x="140" y="400" width="20" height="20" as="geometry" />
        </mxCell>
        <mxCell id="lNE3wjMLmRq9qEkR53yq-9" style="edgeStyle=orthogonalEdgeStyle;rounded=0;orthogonalLoop=1;jettySize=auto;html=1;exitX=1;exitY=1;exitDx=0;exitDy=0;entryX=0;entryY=1;entryDx=0;entryDy=0;fontFamily=Computer Modern;" parent="1" source="lNE3wjMLmRq9qEkR53yq-10" target="lNE3wjMLmRq9qEkR53yq-13" edge="1">
          <mxGeometry relative="1" as="geometry" />
        </mxCell>
        <mxCell id="lNE3wjMLmRq9qEkR53yq-10" value="1" style="ellipse;whiteSpace=wrap;html=1;aspect=fixed;fontFamily=Computer Modern;" parent="1" vertex="1">
          <mxGeometry x="195" y="400" width="20" height="20" as="geometry" />
        </mxCell>
        <mxCell id="lNE3wjMLmRq9qEkR53yq-13" value="2" style="ellipse;whiteSpace=wrap;html=1;aspect=fixed;fontFamily=Computer Modern;" parent="1" vertex="1">
          <mxGeometry x="235" y="400" width="20" height="20" as="geometry" />
        </mxCell>
        <mxCell id="lNE3wjMLmRq9qEkR53yq-24" style="edgeStyle=orthogonalEdgeStyle;rounded=0;orthogonalLoop=1;jettySize=auto;html=1;exitX=1;exitY=1;exitDx=0;exitDy=0;entryX=0;entryY=1;entryDx=0;entryDy=0;fontFamily=Computer Modern;" parent="1" source="lNE3wjMLmRq9qEkR53yq-25" target="lNE3wjMLmRq9qEkR53yq-28" edge="1">
          <mxGeometry relative="1" as="geometry" />
        </mxCell>
        <mxCell id="lNE3wjMLmRq9qEkR53yq-31" value="2" style="edgeLabel;html=1;align=center;verticalAlign=middle;resizable=0;points=[];fontFamily=Computer Modern;" parent="lNE3wjMLmRq9qEkR53yq-24" vertex="1" connectable="0">
          <mxGeometry x="-0.1031" y="1" relative="1" as="geometry">
            <mxPoint as="offset" />
          </mxGeometry>
        </mxCell>
        <mxCell id="lNE3wjMLmRq9qEkR53yq-32" style="edgeStyle=orthogonalEdgeStyle;rounded=0;orthogonalLoop=1;jettySize=auto;html=1;exitX=1;exitY=0;exitDx=0;exitDy=0;entryX=0;entryY=0;entryDx=0;entryDy=0;fontFamily=Computer Modern;" parent="1" source="lNE3wjMLmRq9qEkR53yq-25" target="lNE3wjMLmRq9qEkR53yq-28" edge="1">
          <mxGeometry relative="1" as="geometry" />
        </mxCell>
        <mxCell id="lNE3wjMLmRq9qEkR53yq-33" value="5" style="edgeLabel;html=1;align=center;verticalAlign=middle;resizable=0;points=[];fontFamily=Computer Modern;" parent="lNE3wjMLmRq9qEkR53yq-32" vertex="1" connectable="0">
          <mxGeometry x="0.0516" relative="1" as="geometry">
            <mxPoint as="offset" />
          </mxGeometry>
        </mxCell>
        <mxCell id="lNE3wjMLmRq9qEkR53yq-25" value="1" style="ellipse;whiteSpace=wrap;html=1;aspect=fixed;fontFamily=Computer Modern;" parent="1" vertex="1">
          <mxGeometry x="290" y="360" width="20" height="20" as="geometry" />
        </mxCell>
        <mxCell id="lNE3wjMLmRq9qEkR53yq-48" style="edgeStyle=orthogonalEdgeStyle;rounded=0;orthogonalLoop=1;jettySize=auto;html=1;exitX=1;exitY=1;exitDx=0;exitDy=0;entryX=1;entryY=0;entryDx=0;entryDy=0;fontFamily=Computer Modern;" parent="1" source="lNE3wjMLmRq9qEkR53yq-28" target="lNE3wjMLmRq9qEkR53yq-29" edge="1">
          <mxGeometry relative="1" as="geometry" />
        </mxCell>
        <mxCell id="lNE3wjMLmRq9qEkR53yq-28" value="2" style="ellipse;whiteSpace=wrap;html=1;aspect=fixed;fontFamily=Computer Modern;" parent="1" vertex="1">
          <mxGeometry x="340" y="360" width="20" height="20" as="geometry" />
        </mxCell>
        <mxCell id="lNE3wjMLmRq9qEkR53yq-29" value="3" style="ellipse;whiteSpace=wrap;html=1;aspect=fixed;fontFamily=Computer Modern;" parent="1" vertex="1">
          <mxGeometry x="340" y="400" width="20" height="20" as="geometry" />
        </mxCell>
        <mxCell id="lNE3wjMLmRq9qEkR53yq-34" value="(a) Cycles" style="text;html=1;strokeColor=none;fillColor=none;align=center;verticalAlign=middle;whiteSpace=wrap;rounded=0;fontFamily=Computer Modern;" parent="1" vertex="1">
          <mxGeometry x="100" y="430" width="60" height="30" as="geometry" />
        </mxCell>
        <mxCell id="lNE3wjMLmRq9qEkR53yq-35" value="(b) Self-Loop" style="text;html=1;strokeColor=none;fillColor=none;align=center;verticalAlign=middle;whiteSpace=wrap;rounded=0;fontFamily=Computer Modern;" parent="1" vertex="1">
          <mxGeometry x="180" y="430" width="90" height="30" as="geometry" />
        </mxCell>
        <mxCell id="lNE3wjMLmRq9qEkR53yq-38" value="4" style="ellipse;whiteSpace=wrap;html=1;aspect=fixed;fontFamily=Computer Modern;" parent="1" vertex="1">
          <mxGeometry x="100" y="400" width="20" height="20" as="geometry" />
        </mxCell>
        <mxCell id="lNE3wjMLmRq9qEkR53yq-44" value="" style="endArrow=classic;html=1;rounded=0;exitX=0.5;exitY=1;exitDx=0;exitDy=0;entryX=0;entryY=0.5;entryDx=0;entryDy=0;fontFamily=Computer Modern;" parent="1" source="lNE3wjMLmRq9qEkR53yq-1" target="lNE3wjMLmRq9qEkR53yq-3" edge="1">
          <mxGeometry width="50" height="50" relative="1" as="geometry">
            <mxPoint x="190" y="530" as="sourcePoint" />
            <mxPoint x="240" y="480" as="targetPoint" />
          </mxGeometry>
        </mxCell>
        <mxCell id="lNE3wjMLmRq9qEkR53yq-47" value="(c) Parellel Edges" style="text;html=1;strokeColor=none;fillColor=none;align=center;verticalAlign=middle;whiteSpace=wrap;rounded=0;fontFamily=Computer Modern;" parent="1" vertex="1">
          <mxGeometry x="280" y="430" width="100" height="30" as="geometry" />
        </mxCell>
        <mxCell id="lNE3wjMLmRq9qEkR53yq-49" style="edgeStyle=orthogonalEdgeStyle;rounded=0;orthogonalLoop=1;jettySize=auto;html=1;exitX=1;exitY=0;exitDx=0;exitDy=0;entryX=0;entryY=0;entryDx=0;entryDy=0;" parent="1" source="lNE3wjMLmRq9qEkR53yq-10" target="lNE3wjMLmRq9qEkR53yq-10" edge="1">
          <mxGeometry relative="1" as="geometry">
            <Array as="points">
              <mxPoint x="212" y="380" />
              <mxPoint x="198" y="380" />
            </Array>
          </mxGeometry>
        </mxCell>
        <mxCell id="lNE3wjMLmRq9qEkR53yq-51" style="edgeStyle=orthogonalEdgeStyle;rounded=0;orthogonalLoop=1;jettySize=auto;html=1;exitX=1;exitY=1;exitDx=0;exitDy=0;entryX=0;entryY=1;entryDx=0;entryDy=0;fontFamily=Computer Modern;" parent="1" source="lNE3wjMLmRq9qEkR53yq-52" target="lNE3wjMLmRq9qEkR53yq-55" edge="1">
          <mxGeometry relative="1" as="geometry" />
        </mxCell>
        <mxCell id="lNE3wjMLmRq9qEkR53yq-90" value="2" style="edgeLabel;html=1;align=center;verticalAlign=middle;resizable=0;points=[];" parent="lNE3wjMLmRq9qEkR53yq-51" vertex="1" connectable="0">
          <mxGeometry x="-0.0145" y="-1" relative="1" as="geometry">
            <mxPoint as="offset" />
          </mxGeometry>
        </mxCell>
        <mxCell id="lNE3wjMLmRq9qEkR53yq-52" value="1" style="ellipse;whiteSpace=wrap;html=1;aspect=fixed;fontFamily=Computer Modern;" parent="1" vertex="1">
          <mxGeometry x="110" y="554" width="20" height="20" as="geometry" />
        </mxCell>
        <mxCell id="lNE3wjMLmRq9qEkR53yq-53" style="edgeStyle=orthogonalEdgeStyle;rounded=0;orthogonalLoop=1;jettySize=auto;html=1;exitX=0;exitY=0;exitDx=0;exitDy=0;entryX=1;entryY=0;entryDx=0;entryDy=0;fontFamily=Computer Modern;" parent="1" source="lNE3wjMLmRq9qEkR53yq-55" target="lNE3wjMLmRq9qEkR53yq-52" edge="1">
          <mxGeometry relative="1" as="geometry" />
        </mxCell>
        <mxCell id="lNE3wjMLmRq9qEkR53yq-89" value="1" style="edgeLabel;html=1;align=center;verticalAlign=middle;resizable=0;points=[];" parent="lNE3wjMLmRq9qEkR53yq-53" vertex="1" connectable="0">
          <mxGeometry x="0.0727" y="-1" relative="1" as="geometry">
            <mxPoint as="offset" />
          </mxGeometry>
        </mxCell>
        <mxCell id="lNE3wjMLmRq9qEkR53yq-54" style="edgeStyle=orthogonalEdgeStyle;rounded=0;orthogonalLoop=1;jettySize=auto;html=1;exitX=0;exitY=1;exitDx=0;exitDy=0;entryX=0;entryY=0;entryDx=0;entryDy=0;fontFamily=Computer Modern;" parent="1" source="lNE3wjMLmRq9qEkR53yq-55" target="lNE3wjMLmRq9qEkR53yq-58" edge="1">
          <mxGeometry relative="1" as="geometry" />
        </mxCell>
        <mxCell id="lNE3wjMLmRq9qEkR53yq-91" value="3" style="edgeLabel;html=1;align=center;verticalAlign=middle;resizable=0;points=[];" parent="lNE3wjMLmRq9qEkR53yq-54" vertex="1" connectable="0">
          <mxGeometry x="-0.2342" y="-1" relative="1" as="geometry">
            <mxPoint as="offset" />
          </mxGeometry>
        </mxCell>
        <mxCell id="lNE3wjMLmRq9qEkR53yq-88" style="edgeStyle=orthogonalEdgeStyle;rounded=0;orthogonalLoop=1;jettySize=auto;html=1;exitX=1;exitY=1;exitDx=0;exitDy=0;entryX=1;entryY=0;entryDx=0;entryDy=0;" parent="1" source="lNE3wjMLmRq9qEkR53yq-55" target="lNE3wjMLmRq9qEkR53yq-58" edge="1">
          <mxGeometry relative="1" as="geometry" />
        </mxCell>
        <mxCell id="lNE3wjMLmRq9qEkR53yq-92" value="4" style="edgeLabel;html=1;align=center;verticalAlign=middle;resizable=0;points=[];" parent="lNE3wjMLmRq9qEkR53yq-88" vertex="1" connectable="0">
          <mxGeometry x="-0.2174" relative="1" as="geometry">
            <mxPoint as="offset" />
          </mxGeometry>
        </mxCell>
        <mxCell id="lNE3wjMLmRq9qEkR53yq-55" value="2" style="ellipse;whiteSpace=wrap;html=1;aspect=fixed;fontFamily=Computer Modern;" parent="1" vertex="1">
          <mxGeometry x="170" y="554" width="20" height="20" as="geometry" />
        </mxCell>
        <mxCell id="lNE3wjMLmRq9qEkR53yq-57" style="edgeStyle=orthogonalEdgeStyle;rounded=0;orthogonalLoop=1;jettySize=auto;html=1;exitX=0;exitY=1;exitDx=0;exitDy=0;entryX=1;entryY=1;entryDx=0;entryDy=0;fontFamily=Computer Modern;" parent="1" source="lNE3wjMLmRq9qEkR53yq-58" target="lNE3wjMLmRq9qEkR53yq-59" edge="1">
          <mxGeometry relative="1" as="geometry" />
        </mxCell>
        <mxCell id="lNE3wjMLmRq9qEkR53yq-94" value="6" style="edgeLabel;html=1;align=center;verticalAlign=middle;resizable=0;points=[];" parent="lNE3wjMLmRq9qEkR53yq-57" vertex="1" connectable="0">
          <mxGeometry x="-0.1163" y="1" relative="1" as="geometry">
            <mxPoint as="offset" />
          </mxGeometry>
        </mxCell>
        <mxCell id="lNE3wjMLmRq9qEkR53yq-58" value="3" style="ellipse;whiteSpace=wrap;html=1;aspect=fixed;fontFamily=Computer Modern;" parent="1" vertex="1">
          <mxGeometry x="170" y="608" width="20" height="20" as="geometry" />
        </mxCell>
        <mxCell id="lNE3wjMLmRq9qEkR53yq-59" value="4" style="ellipse;whiteSpace=wrap;html=1;aspect=fixed;fontFamily=Computer Modern;" parent="1" vertex="1">
          <mxGeometry x="110" y="608" width="20" height="20" as="geometry" />
        </mxCell>
        <mxCell id="lNE3wjMLmRq9qEkR53yq-60" value="" style="endArrow=classic;html=1;rounded=0;exitX=0.5;exitY=1;exitDx=0;exitDy=0;entryX=0;entryY=0.5;entryDx=0;entryDy=0;fontFamily=Computer Modern;" parent="1" source="lNE3wjMLmRq9qEkR53yq-52" target="lNE3wjMLmRq9qEkR53yq-58" edge="1">
          <mxGeometry width="50" height="50" relative="1" as="geometry">
            <mxPoint x="200" y="724" as="sourcePoint" />
            <mxPoint x="250" y="674" as="targetPoint" />
          </mxGeometry>
        </mxCell>
        <mxCell id="lNE3wjMLmRq9qEkR53yq-93" value="5" style="edgeLabel;html=1;align=center;verticalAlign=middle;resizable=0;points=[];" parent="lNE3wjMLmRq9qEkR53yq-60" vertex="1" connectable="0">
          <mxGeometry x="-0.0481" y="1" relative="1" as="geometry">
            <mxPoint as="offset" />
          </mxGeometry>
        </mxCell>
        <mxCell id="lNE3wjMLmRq9qEkR53yq-61" value="" style="shape=table;startSize=0;container=1;collapsible=0;childLayout=tableLayout;fontSize=12;fontFamily=Computer Modern;" parent="1" vertex="1">
          <mxGeometry x="235" y="554" width="20" height="80" as="geometry" />
        </mxCell>
        <mxCell id="lNE3wjMLmRq9qEkR53yq-62" value="" style="shape=tableRow;horizontal=0;startSize=0;swimlaneHead=0;swimlaneBody=0;strokeColor=inherit;top=0;left=0;bottom=0;right=0;collapsible=0;dropTarget=0;fillColor=none;points=[[0,0.5],[1,0.5]];portConstraint=eastwest;fontSize=12;fontFamily=Computer Modern;" parent="lNE3wjMLmRq9qEkR53yq-61" vertex="1">
          <mxGeometry width="20" height="20" as="geometry" />
        </mxCell>
        <mxCell id="lNE3wjMLmRq9qEkR53yq-63" value="1" style="shape=partialRectangle;html=1;whiteSpace=wrap;connectable=0;strokeColor=inherit;overflow=hidden;fillColor=none;top=0;left=0;bottom=0;right=0;pointerEvents=1;fontSize=12;fontFamily=Computer Modern;" parent="lNE3wjMLmRq9qEkR53yq-62" vertex="1">
          <mxGeometry width="20" height="20" as="geometry">
            <mxRectangle width="20" height="20" as="alternateBounds" />
          </mxGeometry>
        </mxCell>
        <mxCell id="lNE3wjMLmRq9qEkR53yq-66" value="" style="shape=tableRow;horizontal=0;startSize=0;swimlaneHead=0;swimlaneBody=0;strokeColor=inherit;top=0;left=0;bottom=0;right=0;collapsible=0;dropTarget=0;fillColor=none;points=[[0,0.5],[1,0.5]];portConstraint=eastwest;fontSize=12;fontFamily=Computer Modern;" parent="lNE3wjMLmRq9qEkR53yq-61" vertex="1">
          <mxGeometry y="20" width="20" height="20" as="geometry" />
        </mxCell>
        <mxCell id="lNE3wjMLmRq9qEkR53yq-67" value="2" style="shape=partialRectangle;html=1;whiteSpace=wrap;connectable=0;strokeColor=inherit;overflow=hidden;fillColor=none;top=0;left=0;bottom=0;right=0;pointerEvents=1;fontSize=12;fontFamily=Computer Modern;" parent="lNE3wjMLmRq9qEkR53yq-66" vertex="1">
          <mxGeometry width="20" height="20" as="geometry">
            <mxRectangle width="20" height="20" as="alternateBounds" />
          </mxGeometry>
        </mxCell>
        <mxCell id="lNE3wjMLmRq9qEkR53yq-70" value="" style="shape=tableRow;horizontal=0;startSize=0;swimlaneHead=0;swimlaneBody=0;strokeColor=inherit;top=0;left=0;bottom=0;right=0;collapsible=0;dropTarget=0;fillColor=none;points=[[0,0.5],[1,0.5]];portConstraint=eastwest;fontSize=12;fontFamily=Computer Modern;" parent="lNE3wjMLmRq9qEkR53yq-61" vertex="1">
          <mxGeometry y="40" width="20" height="20" as="geometry" />
        </mxCell>
        <mxCell id="lNE3wjMLmRq9qEkR53yq-71" value="3" style="shape=partialRectangle;html=1;whiteSpace=wrap;connectable=0;strokeColor=inherit;overflow=hidden;fillColor=none;top=0;left=0;bottom=0;right=0;pointerEvents=1;fontSize=12;fontFamily=Computer Modern;" parent="lNE3wjMLmRq9qEkR53yq-70" vertex="1">
          <mxGeometry width="20" height="20" as="geometry">
            <mxRectangle width="20" height="20" as="alternateBounds" />
          </mxGeometry>
        </mxCell>
        <mxCell id="lNE3wjMLmRq9qEkR53yq-74" style="shape=tableRow;horizontal=0;startSize=0;swimlaneHead=0;swimlaneBody=0;strokeColor=inherit;top=0;left=0;bottom=0;right=0;collapsible=0;dropTarget=0;fillColor=none;points=[[0,0.5],[1,0.5]];portConstraint=eastwest;fontSize=12;fontFamily=Computer Modern;" parent="lNE3wjMLmRq9qEkR53yq-61" vertex="1">
          <mxGeometry y="60" width="20" height="20" as="geometry" />
        </mxCell>
        <mxCell id="lNE3wjMLmRq9qEkR53yq-75" value="4" style="shape=partialRectangle;html=1;whiteSpace=wrap;connectable=0;strokeColor=inherit;overflow=hidden;fillColor=none;top=0;left=0;bottom=0;right=0;pointerEvents=1;fontSize=12;fontFamily=Computer Modern;" parent="lNE3wjMLmRq9qEkR53yq-74" vertex="1">
          <mxGeometry width="20" height="20" as="geometry">
            <mxRectangle width="20" height="20" as="alternateBounds" />
          </mxGeometry>
        </mxCell>
        <mxCell id="lNE3wjMLmRq9qEkR53yq-79" style="edgeStyle=orthogonalEdgeStyle;rounded=0;orthogonalLoop=1;jettySize=auto;html=1;exitX=1;exitY=0.5;exitDx=0;exitDy=0;entryX=0;entryY=0.5;entryDx=0;entryDy=0;fontFamily=Computer Modern;fontSize=12;" parent="1" source="lNE3wjMLmRq9qEkR53yq-76" target="lNE3wjMLmRq9qEkR53yq-78" edge="1">
          <mxGeometry relative="1" as="geometry" />
        </mxCell>
        <mxCell id="lNE3wjMLmRq9qEkR53yq-76" value="2|2" style="rounded=0;whiteSpace=wrap;html=1;fontFamily=Computer Modern;fontSize=12;" parent="1" vertex="1">
          <mxGeometry x="275" y="554" width="20" height="20" as="geometry" />
        </mxCell>
        <mxCell id="lNE3wjMLmRq9qEkR53yq-77" style="edgeStyle=orthogonalEdgeStyle;rounded=0;orthogonalLoop=1;jettySize=auto;html=1;exitX=1;exitY=0.5;exitDx=0;exitDy=0;entryX=0;entryY=0.5;entryDx=0;entryDy=0;fontFamily=Computer Modern;fontSize=12;" parent="1" source="lNE3wjMLmRq9qEkR53yq-62" target="lNE3wjMLmRq9qEkR53yq-76" edge="1">
          <mxGeometry relative="1" as="geometry" />
        </mxCell>
        <mxCell id="lNE3wjMLmRq9qEkR53yq-78" value="3|5" style="rounded=0;whiteSpace=wrap;html=1;fontFamily=Computer Modern;fontSize=12;" parent="1" vertex="1">
          <mxGeometry x="310" y="554" width="20" height="20" as="geometry" />
        </mxCell>
        <mxCell id="lNE3wjMLmRq9qEkR53yq-86" style="edgeStyle=orthogonalEdgeStyle;rounded=0;orthogonalLoop=1;jettySize=auto;html=1;exitX=1;exitY=0.5;exitDx=0;exitDy=0;entryX=0;entryY=0.5;entryDx=0;entryDy=0;fontFamily=Computer Modern;fontSize=12;" parent="1" source="lNE3wjMLmRq9qEkR53yq-80" target="lNE3wjMLmRq9qEkR53yq-81" edge="1">
          <mxGeometry relative="1" as="geometry" />
        </mxCell>
        <mxCell id="lNE3wjMLmRq9qEkR53yq-96" value="" style="edgeStyle=orthogonalEdgeStyle;rounded=0;orthogonalLoop=1;jettySize=auto;html=1;fontFamily=Computer Modern;fontSize=12;" parent="1" source="lNE3wjMLmRq9qEkR53yq-80" target="lNE3wjMLmRq9qEkR53yq-95" edge="1">
          <mxGeometry relative="1" as="geometry" />
        </mxCell>
        <mxCell id="lNE3wjMLmRq9qEkR53yq-80" value="1|1" style="rounded=0;whiteSpace=wrap;html=1;fontFamily=Computer Modern;fontSize=12;" parent="1" vertex="1">
          <mxGeometry x="275" y="579" width="20" height="20" as="geometry" />
        </mxCell>
        <mxCell id="lNE3wjMLmRq9qEkR53yq-81" value="3|3" style="rounded=0;whiteSpace=wrap;html=1;fontFamily=Computer Modern;fontSize=12;" parent="1" vertex="1">
          <mxGeometry x="310" y="579" width="20" height="20" as="geometry" />
        </mxCell>
        <mxCell id="lNE3wjMLmRq9qEkR53yq-82" value="4|6" style="rounded=0;whiteSpace=wrap;html=1;fontFamily=Computer Modern;fontSize=12;" parent="1" vertex="1">
          <mxGeometry x="275" y="608" width="20" height="20" as="geometry" />
        </mxCell>
        <mxCell id="lNE3wjMLmRq9qEkR53yq-85" value="" style="endArrow=classic;html=1;rounded=0;exitX=1;exitY=0.5;exitDx=0;exitDy=0;entryX=0;entryY=0.5;entryDx=0;entryDy=0;fontFamily=Computer Modern;fontSize=12;" parent="1" source="lNE3wjMLmRq9qEkR53yq-66" target="lNE3wjMLmRq9qEkR53yq-80" edge="1">
          <mxGeometry width="50" height="50" relative="1" as="geometry">
            <mxPoint x="250" y="564" as="sourcePoint" />
            <mxPoint x="300" y="514" as="targetPoint" />
          </mxGeometry>
        </mxCell>
        <mxCell id="lNE3wjMLmRq9qEkR53yq-87" value="" style="endArrow=classic;html=1;rounded=0;exitX=1;exitY=0.5;exitDx=0;exitDy=0;entryX=0;entryY=0.5;entryDx=0;entryDy=0;fontFamily=Computer Modern;fontSize=12;" parent="1" source="lNE3wjMLmRq9qEkR53yq-70" target="lNE3wjMLmRq9qEkR53yq-82" edge="1">
          <mxGeometry width="50" height="50" relative="1" as="geometry">
            <mxPoint x="265" y="594" as="sourcePoint" />
            <mxPoint x="285" y="599" as="targetPoint" />
          </mxGeometry>
        </mxCell>
        <mxCell id="lNE3wjMLmRq9qEkR53yq-95" value="3|4" style="rounded=0;whiteSpace=wrap;html=1;fontFamily=Computer Modern;fontSize=12;" parent="1" vertex="1">
          <mxGeometry x="346" y="579" width="20" height="20" as="geometry" />
        </mxCell>
        <mxCell id="lNE3wjMLmRq9qEkR53yq-98" value="(a) Cycles" style="text;html=1;strokeColor=none;fillColor=none;align=center;verticalAlign=middle;whiteSpace=wrap;rounded=0;fontFamily=Computer Modern;" parent="1" vertex="1">
          <mxGeometry x="120" y="640" width="60" height="30" as="geometry" />
        </mxCell>
        <mxCell id="lNE3wjMLmRq9qEkR53yq-99" value="(b) Adjacecy List Representation" style="text;html=1;strokeColor=none;fillColor=none;align=center;verticalAlign=middle;whiteSpace=wrap;rounded=0;fontFamily=Computer Modern;" parent="1" vertex="1">
          <mxGeometry x="242.5" y="640" width="115" height="30" as="geometry" />
        </mxCell>
        <mxCell id="lNE3wjMLmRq9qEkR53yq-104" style="edgeStyle=orthogonalEdgeStyle;rounded=0;orthogonalLoop=1;jettySize=auto;html=1;exitX=0.5;exitY=1;exitDx=0;exitDy=0;entryX=0.5;entryY=0;entryDx=0;entryDy=0;fontFamily=Computer Modern;fontSize=10;align=center;verticalAlign=middle;" parent="1" source="lNE3wjMLmRq9qEkR53yq-100" target="lNE3wjMLmRq9qEkR53yq-103" edge="1">
          <mxGeometry relative="1" as="geometry" />
        </mxCell>
        <mxCell id="lNE3wjMLmRq9qEkR53yq-100" value="Input Graph" style="rounded=1;html=1;fontFamily=Computer Modern;fontSize=10;align=center;verticalAlign=middle;whiteSpace=wrap;fillColor=#dae8fc;strokeColor=#6c8ebf;" parent="1" vertex="1">
          <mxGeometry x="120" y="730" width="50" height="30" as="geometry" />
        </mxCell>
        <mxCell id="lNE3wjMLmRq9qEkR53yq-107" style="edgeStyle=orthogonalEdgeStyle;rounded=0;orthogonalLoop=1;jettySize=auto;html=1;exitX=0.5;exitY=1;exitDx=0;exitDy=0;exitPerimeter=0;entryX=0.5;entryY=0;entryDx=0;entryDy=0;fontFamily=Computer Modern;fontSize=10;align=center;verticalAlign=middle;" parent="1" source="lNE3wjMLmRq9qEkR53yq-102" target="lNE3wjMLmRq9qEkR53yq-106" edge="1">
          <mxGeometry relative="1" as="geometry" />
        </mxCell>
        <mxCell id="lNE3wjMLmRq9qEkR53yq-102" value="PathPQ" style="shape=cylinder3;html=1;boundedLbl=1;backgroundOutline=1;size=8.244897959183504;fontFamily=Computer Modern;fontSize=10;align=center;verticalAlign=middle;whiteSpace=wrap;" parent="1" vertex="1">
          <mxGeometry x="210" y="793.41" width="60" height="40" as="geometry" />
        </mxCell>
        <mxCell id="lNE3wjMLmRq9qEkR53yq-103" value="Init Path&lt;br&gt;(1st Vertex)" style="rounded=0;html=1;fontFamily=Computer Modern;fontSize=10;align=center;verticalAlign=middle;whiteSpace=wrap;" parent="1" vertex="1">
          <mxGeometry x="120" y="798.41" width="50" height="30" as="geometry" />
        </mxCell>
        <mxCell id="lNE3wjMLmRq9qEkR53yq-109" style="edgeStyle=orthogonalEdgeStyle;rounded=0;orthogonalLoop=1;jettySize=auto;html=1;exitX=0;exitY=0.5;exitDx=0;exitDy=0;entryX=1;entryY=0.5;entryDx=0;entryDy=0;fontFamily=Computer Modern;fontSize=10;align=center;verticalAlign=middle;" parent="1" source="lNE3wjMLmRq9qEkR53yq-106" target="lNE3wjMLmRq9qEkR53yq-108" edge="1">
          <mxGeometry relative="1" as="geometry" />
        </mxCell>
        <mxCell id="lNE3wjMLmRq9qEkR53yq-110" value="Yes" style="edgeLabel;html=1;align=center;verticalAlign=middle;resizable=0;points=[];fontFamily=Computer Modern;fontSize=10;" parent="lNE3wjMLmRq9qEkR53yq-109" vertex="1" connectable="0">
          <mxGeometry x="-0.2761" y="-2" relative="1" as="geometry">
            <mxPoint as="offset" />
          </mxGeometry>
        </mxCell>
        <mxCell id="lNE3wjMLmRq9qEkR53yq-111" style="edgeStyle=orthogonalEdgeStyle;rounded=0;orthogonalLoop=1;jettySize=auto;html=1;exitX=1;exitY=0.5;exitDx=0;exitDy=0;entryX=0;entryY=0.5;entryDx=0;entryDy=0;fontFamily=Computer Modern;fontSize=10;align=center;verticalAlign=middle;" parent="1" source="lNE3wjMLmRq9qEkR53yq-106" target="lNE3wjMLmRq9qEkR53yq-113" edge="1">
          <mxGeometry relative="1" as="geometry">
            <mxPoint x="300" y="873.41" as="targetPoint" />
          </mxGeometry>
        </mxCell>
        <mxCell id="lNE3wjMLmRq9qEkR53yq-112" value="No" style="edgeLabel;html=1;align=center;verticalAlign=middle;resizable=0;points=[];fontFamily=Computer Modern;fontSize=10;" parent="lNE3wjMLmRq9qEkR53yq-111" vertex="1" connectable="0">
          <mxGeometry x="-0.2924" y="1" relative="1" as="geometry">
            <mxPoint as="offset" />
          </mxGeometry>
        </mxCell>
        <mxCell id="lNE3wjMLmRq9qEkR53yq-106" value="isEmpty" style="rhombus;html=1;fontFamily=Computer Modern;fontSize=10;align=center;verticalAlign=middle;whiteSpace=wrap;" parent="1" vertex="1">
          <mxGeometry x="215" y="848.41" width="50" height="50" as="geometry" />
        </mxCell>
        <mxCell id="lNE3wjMLmRq9qEkR53yq-108" value="No 2nd&lt;br style=&quot;font-size: 10px;&quot;&gt;Shortest" style="rounded=1;html=1;fontFamily=Computer Modern;fontSize=10;align=center;verticalAlign=middle;whiteSpace=wrap;fillColor=#f8cecc;strokeColor=#b85450;" parent="1" vertex="1">
          <mxGeometry x="120" y="858.41" width="50" height="30" as="geometry" />
        </mxCell>
        <mxCell id="lNE3wjMLmRq9qEkR53yq-134" value="" style="edgeStyle=orthogonalEdgeStyle;rounded=0;orthogonalLoop=1;jettySize=auto;html=1;fontSize=10;fontFamily=Computer Modern;align=center;verticalAlign=middle;" parent="1" source="lNE3wjMLmRq9qEkR53yq-113" target="lNE3wjMLmRq9qEkR53yq-133" edge="1">
          <mxGeometry relative="1" as="geometry" />
        </mxCell>
        <mxCell id="lNE3wjMLmRq9qEkR53yq-113" value="Dequeue&lt;br style=&quot;font-size: 10px;&quot;&gt;Path P" style="rounded=0;html=1;fontFamily=Computer Modern;fontSize=10;align=center;verticalAlign=middle;whiteSpace=wrap;" parent="1" vertex="1">
          <mxGeometry x="305" y="858.41" width="50" height="30" as="geometry" />
        </mxCell>
        <mxCell id="lNE3wjMLmRq9qEkR53yq-141" style="edgeStyle=orthogonalEdgeStyle;rounded=0;orthogonalLoop=1;jettySize=auto;html=1;exitX=0;exitY=0.5;exitDx=0;exitDy=0;entryX=1;entryY=0.5;entryDx=0;entryDy=0;fontSize=10;fontFamily=Computer Modern;align=center;verticalAlign=middle;" parent="1" source="lNE3wjMLmRq9qEkR53yq-116" target="lNE3wjMLmRq9qEkR53yq-120" edge="1">
          <mxGeometry relative="1" as="geometry" />
        </mxCell>
        <mxCell id="lNE3wjMLmRq9qEkR53yq-142" value="No" style="edgeLabel;html=1;align=center;verticalAlign=middle;resizable=0;points=[];fontSize=10;fontFamily=Computer Modern;" parent="lNE3wjMLmRq9qEkR53yq-141" vertex="1" connectable="0">
          <mxGeometry x="-0.2422" y="1" relative="1" as="geometry">
            <mxPoint x="-1" y="6" as="offset" />
          </mxGeometry>
        </mxCell>
        <mxCell id="lNE3wjMLmRq9qEkR53yq-156" style="edgeStyle=orthogonalEdgeStyle;rounded=0;orthogonalLoop=1;jettySize=auto;html=1;exitX=0.5;exitY=0;exitDx=0;exitDy=0;entryX=0.5;entryY=1;entryDx=0;entryDy=0;fontSize=10;fontFamily=Computer Modern;align=center;verticalAlign=middle;" parent="1" source="lNE3wjMLmRq9qEkR53yq-116" target="lNE3wjMLmRq9qEkR53yq-129" edge="1">
          <mxGeometry relative="1" as="geometry" />
        </mxCell>
        <mxCell id="lNE3wjMLmRq9qEkR53yq-160" value="Yes" style="edgeLabel;html=1;align=center;verticalAlign=middle;resizable=0;points=[];fontSize=10;fontFamily=Computer Modern;" parent="lNE3wjMLmRq9qEkR53yq-156" vertex="1" connectable="0">
          <mxGeometry x="0.0353" y="-2" relative="1" as="geometry">
            <mxPoint x="14" as="offset" />
          </mxGeometry>
        </mxCell>
        <mxCell id="lNE3wjMLmRq9qEkR53yq-116" value="Is P Complete?" style="rhombus;html=1;fontFamily=Computer Modern;fontSize=10;align=center;verticalAlign=middle;whiteSpace=wrap;" parent="1" vertex="1">
          <mxGeometry x="380" y="783.41" width="71" height="50" as="geometry" />
        </mxCell>
        <mxCell id="lNE3wjMLmRq9qEkR53yq-119" value="Advance&lt;br style=&quot;font-size: 10px;&quot;&gt;For Each Edge" style="rounded=0;html=1;fontFamily=Computer Modern;fontSize=10;align=center;verticalAlign=middle;whiteSpace=wrap;" parent="1" vertex="1">
          <mxGeometry x="215" y="725" width="50" height="40" as="geometry" />
        </mxCell>
        <mxCell id="lNE3wjMLmRq9qEkR53yq-120" value="Has Outgoing Edge?" style="rhombus;html=1;fontFamily=Computer Modern;fontSize=10;align=center;verticalAlign=middle;whiteSpace=wrap;" parent="1" vertex="1">
          <mxGeometry x="290" y="783.41" width="65" height="50" as="geometry" />
        </mxCell>
        <mxCell id="lNE3wjMLmRq9qEkR53yq-122" value="Enqueue" style="edgeStyle=orthogonalEdgeStyle;rounded=0;orthogonalLoop=1;jettySize=auto;html=1;exitX=0.5;exitY=1;exitDx=0;exitDy=0;entryX=0.5;entryY=0;entryDx=0;entryDy=0;entryPerimeter=0;fontFamily=Computer Modern;fontSize=10;align=center;verticalAlign=middle;" parent="1" source="lNE3wjMLmRq9qEkR53yq-119" target="lNE3wjMLmRq9qEkR53yq-102" edge="1">
          <mxGeometry x="-0.009" relative="1" as="geometry">
            <mxPoint x="240.42000000000007" y="778.48" as="targetPoint" />
            <Array as="points">
              <mxPoint x="240" y="770" />
              <mxPoint x="240" y="770" />
            </Array>
            <mxPoint as="offset" />
          </mxGeometry>
        </mxCell>
        <mxCell id="lNE3wjMLmRq9qEkR53yq-157" style="edgeStyle=orthogonalEdgeStyle;rounded=0;orthogonalLoop=1;jettySize=auto;html=1;exitX=0;exitY=0.5;exitDx=0;exitDy=0;entryX=1;entryY=0.5;entryDx=0;entryDy=0;fontSize=10;fontFamily=Computer Modern;align=center;verticalAlign=middle;" parent="1" source="lNE3wjMLmRq9qEkR53yq-129" target="lNE3wjMLmRq9qEkR53yq-132" edge="1">
          <mxGeometry relative="1" as="geometry" />
        </mxCell>
        <mxCell id="lNE3wjMLmRq9qEkR53yq-159" value="Yes" style="edgeLabel;html=1;align=center;verticalAlign=middle;resizable=0;points=[];fontSize=10;fontFamily=Computer Modern;" parent="lNE3wjMLmRq9qEkR53yq-157" vertex="1" connectable="0">
          <mxGeometry x="0.1038" y="1" relative="1" as="geometry">
            <mxPoint x="7" y="9" as="offset" />
          </mxGeometry>
        </mxCell>
        <mxCell id="lNE3wjMLmRq9qEkR53yq-129" value="Longer Than&lt;br style=&quot;font-size: 10px;&quot;&gt;Shortest?" style="rhombus;html=1;fontFamily=Computer Modern;fontSize=10;align=center;verticalAlign=middle;whiteSpace=wrap;" parent="1" vertex="1">
          <mxGeometry x="378.5" y="720" width="71" height="50" as="geometry" />
        </mxCell>
        <mxCell id="lNE3wjMLmRq9qEkR53yq-132" value="2nd Shortest" style="rounded=1;html=1;fontFamily=Computer Modern;fontSize=10;align=center;verticalAlign=middle;whiteSpace=wrap;fillColor=#d5e8d4;strokeColor=#82b366;" parent="1" vertex="1">
          <mxGeometry x="305" y="730" width="50" height="30" as="geometry" />
        </mxCell>
        <mxCell id="lNE3wjMLmRq9qEkR53yq-135" style="edgeStyle=orthogonalEdgeStyle;rounded=0;orthogonalLoop=1;jettySize=auto;html=1;exitX=0;exitY=0;exitDx=0;exitDy=0;entryX=1;entryY=0;entryDx=0;entryDy=0;fontSize=10;fontFamily=Computer Modern;align=center;verticalAlign=middle;" parent="1" source="lNE3wjMLmRq9qEkR53yq-133" target="lNE3wjMLmRq9qEkR53yq-106" edge="1">
          <mxGeometry relative="1" as="geometry">
            <Array as="points">
              <mxPoint x="403" y="848" />
              <mxPoint x="252" y="848" />
            </Array>
          </mxGeometry>
        </mxCell>
        <mxCell id="lNE3wjMLmRq9qEkR53yq-144" value="Yes" style="edgeLabel;html=1;align=center;verticalAlign=middle;resizable=0;points=[];fontSize=10;fontFamily=Computer Modern;" parent="lNE3wjMLmRq9qEkR53yq-135" vertex="1" connectable="0">
          <mxGeometry x="-0.1184" relative="1" as="geometry">
            <mxPoint as="offset" />
          </mxGeometry>
        </mxCell>
        <mxCell id="lNE3wjMLmRq9qEkR53yq-138" style="edgeStyle=orthogonalEdgeStyle;rounded=0;orthogonalLoop=1;jettySize=auto;html=1;exitX=0.5;exitY=0;exitDx=0;exitDy=0;entryX=0.5;entryY=1;entryDx=0;entryDy=0;fontSize=10;fontFamily=Computer Modern;align=center;verticalAlign=middle;" parent="1" source="lNE3wjMLmRq9qEkR53yq-133" target="lNE3wjMLmRq9qEkR53yq-116" edge="1">
          <mxGeometry relative="1" as="geometry" />
        </mxCell>
        <mxCell id="lNE3wjMLmRq9qEkR53yq-143" value="No" style="edgeLabel;html=1;align=center;verticalAlign=middle;resizable=0;points=[];fontSize=10;fontFamily=Computer Modern;" parent="lNE3wjMLmRq9qEkR53yq-138" vertex="1" connectable="0">
          <mxGeometry x="-0.0729" relative="1" as="geometry">
            <mxPoint x="16" as="offset" />
          </mxGeometry>
        </mxCell>
        <mxCell id="lNE3wjMLmRq9qEkR53yq-133" value="Is P Bad?" style="rhombus;html=1;fontFamily=Computer Modern;fontSize=10;align=center;verticalAlign=middle;whiteSpace=wrap;" parent="1" vertex="1">
          <mxGeometry x="390.5" y="848.41" width="50" height="50" as="geometry" />
        </mxCell>
        <mxCell id="lNE3wjMLmRq9qEkR53yq-151" value="" style="endArrow=classic;html=1;rounded=0;exitX=0;exitY=1;exitDx=0;exitDy=0;entryX=1;entryY=0;entryDx=0;entryDy=0;fontSize=10;fontFamily=Computer Modern;align=center;verticalAlign=middle;" parent="1" source="lNE3wjMLmRq9qEkR53yq-120" target="lNE3wjMLmRq9qEkR53yq-106" edge="1">
          <mxGeometry width="50" height="50" relative="1" as="geometry">
            <mxPoint x="400" y="712.41" as="sourcePoint" />
            <mxPoint x="450" y="662.41" as="targetPoint" />
          </mxGeometry>
        </mxCell>
        <mxCell id="lNE3wjMLmRq9qEkR53yq-152" value="No" style="edgeLabel;html=1;align=center;verticalAlign=middle;resizable=0;points=[];fontSize=10;fontFamily=Computer Modern;" parent="lNE3wjMLmRq9qEkR53yq-151" vertex="1" connectable="0">
          <mxGeometry x="-0.4471" y="1" relative="1" as="geometry">
            <mxPoint as="offset" />
          </mxGeometry>
        </mxCell>
        <mxCell id="lNE3wjMLmRq9qEkR53yq-153" value="" style="endArrow=classic;html=1;rounded=0;exitX=0;exitY=0;exitDx=0;exitDy=0;entryX=1;entryY=0.5;entryDx=0;entryDy=0;fontSize=10;fontFamily=Computer Modern;align=center;verticalAlign=middle;" parent="1" source="lNE3wjMLmRq9qEkR53yq-120" target="lNE3wjMLmRq9qEkR53yq-119" edge="1">
          <mxGeometry width="50" height="50" relative="1" as="geometry">
            <mxPoint x="395" y="700" as="sourcePoint" />
            <mxPoint x="330" y="750" as="targetPoint" />
          </mxGeometry>
        </mxCell>
        <mxCell id="lNE3wjMLmRq9qEkR53yq-154" value="Yes" style="edgeLabel;html=1;align=center;verticalAlign=middle;resizable=0;points=[];fontSize=10;fontFamily=Computer Modern;" parent="lNE3wjMLmRq9qEkR53yq-153" vertex="1" connectable="0">
          <mxGeometry x="-0.4471" y="1" relative="1" as="geometry">
            <mxPoint as="offset" />
          </mxGeometry>
        </mxCell>
        <mxCell id="lNE3wjMLmRq9qEkR53yq-162" value="Enqueue" style="edgeStyle=orthogonalEdgeStyle;rounded=0;orthogonalLoop=1;jettySize=auto;html=1;exitX=1;exitY=0.5;exitDx=0;exitDy=0;entryX=0;entryY=0.5;entryDx=0;entryDy=0;entryPerimeter=0;fontFamily=Computer Modern;fontSize=10;" parent="1" source="lNE3wjMLmRq9qEkR53yq-103" target="lNE3wjMLmRq9qEkR53yq-102" edge="1">
          <mxGeometry y="-7" relative="1" as="geometry">
            <mxPoint as="offset" />
          </mxGeometry>
        </mxCell>
        <mxCell id="OcHYUiK5m5ujV03YEmFt-1" style="edgeStyle=orthogonalEdgeStyle;rounded=0;orthogonalLoop=1;jettySize=auto;html=1;exitX=1;exitY=1;exitDx=0;exitDy=0;entryX=0;entryY=1;entryDx=0;entryDy=0;fontFamily=CMU Serif;" parent="1" source="OcHYUiK5m5ujV03YEmFt-2" target="OcHYUiK5m5ujV03YEmFt-5" edge="1">
          <mxGeometry relative="1" as="geometry">
            <Array as="points">
              <mxPoint x="507" y="400" />
              <mxPoint x="533" y="400" />
            </Array>
          </mxGeometry>
        </mxCell>
        <mxCell id="OcHYUiK5m5ujV03YEmFt-12" value="1" style="edgeLabel;html=1;align=center;verticalAlign=middle;resizable=0;points=[];fontFamily=CMU Serif;" parent="OcHYUiK5m5ujV03YEmFt-1" vertex="1" connectable="0">
          <mxGeometry x="-0.0628" relative="1" as="geometry">
            <mxPoint as="offset" />
          </mxGeometry>
        </mxCell>
        <mxCell id="OcHYUiK5m5ujV03YEmFt-2" value="1" style="ellipse;whiteSpace=wrap;html=1;aspect=fixed;fontFamily=CMU Serif;" parent="1" vertex="1">
          <mxGeometry x="490" y="370" width="20" height="20" as="geometry" />
        </mxCell>
        <mxCell id="OcHYUiK5m5ujV03YEmFt-3" style="edgeStyle=orthogonalEdgeStyle;rounded=0;orthogonalLoop=1;jettySize=auto;html=1;exitX=0;exitY=0;exitDx=0;exitDy=0;entryX=1;entryY=0;entryDx=0;entryDy=0;fontFamily=CMU Serif;" parent="1" source="OcHYUiK5m5ujV03YEmFt-5" target="OcHYUiK5m5ujV03YEmFt-2" edge="1">
          <mxGeometry relative="1" as="geometry">
            <Array as="points">
              <mxPoint x="533" y="360" />
              <mxPoint x="507" y="360" />
            </Array>
          </mxGeometry>
        </mxCell>
        <mxCell id="OcHYUiK5m5ujV03YEmFt-13" value="1" style="edgeLabel;html=1;align=center;verticalAlign=middle;resizable=0;points=[];fontFamily=CMU Serif;" parent="OcHYUiK5m5ujV03YEmFt-3" vertex="1" connectable="0">
          <mxGeometry x="-0.3167" relative="1" as="geometry">
            <mxPoint as="offset" />
          </mxGeometry>
        </mxCell>
        <mxCell id="OcHYUiK5m5ujV03YEmFt-5" value="2" style="ellipse;whiteSpace=wrap;html=1;aspect=fixed;fontFamily=CMU Serif;" parent="1" vertex="1">
          <mxGeometry x="530" y="370" width="20" height="20" as="geometry" />
        </mxCell>
        <mxCell id="OcHYUiK5m5ujV03YEmFt-8" value="3" style="ellipse;whiteSpace=wrap;html=1;aspect=fixed;fontFamily=CMU Serif;" parent="1" vertex="1">
          <mxGeometry x="500" y="410" width="20" height="20" as="geometry" />
        </mxCell>
        <mxCell id="OcHYUiK5m5ujV03YEmFt-10" value="" style="endArrow=classic;html=1;rounded=0;exitX=0.5;exitY=1;exitDx=0;exitDy=0;entryX=0;entryY=0.5;entryDx=0;entryDy=0;fontFamily=CMU Serif;" parent="1" source="OcHYUiK5m5ujV03YEmFt-2" target="OcHYUiK5m5ujV03YEmFt-8" edge="1">
          <mxGeometry width="50" height="50" relative="1" as="geometry">
            <mxPoint x="580" y="540" as="sourcePoint" />
            <mxPoint x="630" y="490" as="targetPoint" />
          </mxGeometry>
        </mxCell>
        <mxCell id="OcHYUiK5m5ujV03YEmFt-11" value="1" style="edgeLabel;html=1;align=center;verticalAlign=middle;resizable=0;points=[];fontFamily=CMU Serif;" parent="OcHYUiK5m5ujV03YEmFt-10" vertex="1" connectable="0">
          <mxGeometry x="-0.0811" y="1" relative="1" as="geometry">
            <mxPoint as="offset" />
          </mxGeometry>
        </mxCell>
        <mxCell id="OcHYUiK5m5ujV03YEmFt-15" value="" style="sketch=0;html=1;aspect=fixed;strokeColor=#b85450;shadow=0;fillColor=#f8cecc;verticalAlign=top;labelPosition=center;verticalLabelPosition=bottom;shape=mxgraph.gcp2.arrow_cycle;fillStyle=auto;opacity=50;fontFamily=CMU Serif;" parent="1" vertex="1">
          <mxGeometry x="493" y="355.25" width="50" height="47.5" as="geometry" />
        </mxCell>
        <mxCell id="OcHYUiK5m5ujV03YEmFt-16" value="" style="shape=flexArrow;endArrow=classic;html=1;rounded=0;endWidth=3.8072575847709698;endSize=2.7707317073170734;width=4.390243902439025;fillColor=#d5e8d4;strokeColor=#82b366;opacity=50;fontFamily=CMU Serif;" parent="1" edge="1">
          <mxGeometry width="50" height="50" relative="1" as="geometry">
            <mxPoint x="490" y="380" as="sourcePoint" />
            <mxPoint x="490.5" y="420" as="targetPoint" />
          </mxGeometry>
        </mxCell>
        <mxCell id="OcHYUiK5m5ujV03YEmFt-17" value="" style="rounded=0;whiteSpace=wrap;html=1;fillColor=#d5e8d4;strokeColor=#82b366;fontSize=10;fontFamily=CMU Serif;" parent="1" vertex="1">
          <mxGeometry x="409" y="380" width="10" height="10" as="geometry" />
        </mxCell>
        <mxCell id="OcHYUiK5m5ujV03YEmFt-18" value="Shortest" style="text;html=1;strokeColor=none;fillColor=none;align=center;verticalAlign=middle;whiteSpace=wrap;rounded=0;fontSize=10;fontFamily=CMU Serif;" parent="1" vertex="1">
          <mxGeometry x="414" y="370" width="60" height="30" as="geometry" />
        </mxCell>
        <mxCell id="OcHYUiK5m5ujV03YEmFt-19" value="" style="rounded=0;whiteSpace=wrap;html=1;fillColor=#f8cecc;strokeColor=#b85450;fontSize=10;fontFamily=CMU Serif;" parent="1" vertex="1">
          <mxGeometry x="409" y="400" width="10" height="10" as="geometry" />
        </mxCell>
        <mxCell id="OcHYUiK5m5ujV03YEmFt-20" value="Bad Loop" style="text;html=1;strokeColor=none;fillColor=none;align=center;verticalAlign=middle;whiteSpace=wrap;rounded=0;fontSize=10;fontFamily=CMU Serif;" parent="1" vertex="1">
          <mxGeometry x="417" y="390" width="60" height="30" as="geometry" />
        </mxCell>
      </root>
    </mxGraphModel>
  </diagram>
</mxfile>
